<svg width="16" height="16" viewBox="0 0 16 16" fill="none" xmlns="http://www.w3.org/2000/svg">
<path d="M0.666992 2.66669L0.666992 6.66669L4.66699 6.66669" stroke="white" stroke-linecap="round" stroke-linejoin="round"/>
<path d="M0.666992 2.66669L0.666992 6.66669L4.66699 6.66669" stroke="black" stroke-opacity="0.9" stroke-linecap="round" stroke-linejoin="round"/>
<path d="M15.333 13.3333V9.33331H11.333" stroke="white" stroke-linecap="round" stroke-linejoin="round"/>
<path d="M15.333 13.3333V9.33331H11.333" stroke="black" stroke-opacity="0.9" stroke-linecap="round" stroke-linejoin="round"/>
<path d="M13.6603 6.00001C13.3222 5.04453 12.7476 4.19028 11.99 3.51696C11.2325 2.84363 10.3167 2.37319 9.32813 2.14952C8.33959 1.92584 7.31049 1.95624 6.33687 2.23786C5.36324 2.51948 4.47682 3.04315 3.76033 3.76001L0.666992 6.66668M15.3337 9.33334L12.2403 12.24C11.5238 12.9569 10.6374 13.4805 9.66379 13.7622C8.69016 14.0438 7.66106 14.0742 6.67252 13.8505C5.68397 13.6268 4.76819 13.1564 4.01064 12.4831C3.25308 11.8097 2.67844 10.9555 2.34033 10" stroke="white" stroke-linecap="round" stroke-linejoin="round"/>
<path d="M13.6603 6.00001C13.3222 5.04453 12.7476 4.19028 11.99 3.51696C11.2325 2.84363 10.3167 2.37319 9.32813 2.14952C8.33959 1.92584 7.31049 1.95624 6.33687 2.23786C5.36324 2.51948 4.47682 3.04315 3.76033 3.76001L0.666992 6.66668M15.3337 9.33334L12.2403 12.24C11.5238 12.9569 10.6374 13.4805 9.66379 13.7622C8.69016 14.0438 7.66106 14.0742 6.67252 13.8505C5.68397 13.6268 4.76819 13.1564 4.01064 12.4831C3.25308 11.8097 2.67844 10.9555 2.34033 10" stroke="black" stroke-opacity="0.9" stroke-linecap="round" stroke-linejoin="round"/>
</svg>
